Coordinates
version=1
nRows=9
nColumns=63
inDegrees=yes

Units are S.I. units (second, meters, Newtons, ...)
If the header above contains a line with 'inDegrees', this indicates whether rotational values are in degrees (yes) or radians (no).

endheader
time	pelvis_tilt	pelvis_list	pelvis_rotation	pelvis_tx	pelvis_ty	pelvis_tz	hip_flexion_r	hip_adduction_r	hip_rotation_r	knee_angle_r	knee_angle_r_beta	ankle_angle_r	subtalar_angle_r	mtp_angle_r	hip_flexion_l	hip_adduction_l	hip_rotation_l	knee_angle_l	knee_angle_l_beta	ankle_angle_l	subtalar_angle_l	mtp_angle_l	L5_S1_Flex_Ext	L5_S1_Lat_Bending	L5_S1_axial_rotation	L4_L5_Flex_Ext	L4_L5_Lat_Bending	L4_L5_axial_rotation	L3_L4_Flex_Ext	L3_L4_Lat_Bending	L3_L4_axial_rotation	L2_L3_Flex_Ext	L2_L3_Lat_Bending	L2_L3_axial_rotation	L1_L2_Flex_Ext	L1_L2_Lat_Bending	L1_L2_axial_rotation	L1_T12_Flex_Ext	L1_T12_Lat_Bending	L1_T12_axial_rotation	Abs_r3	Abs_r2	Abs_r1	Abs_t1	Abs_t2	neck_flexion	neck_bending	neck_rotation	arm_flex_r	arm_add_r	arm_rot_r	elbow_flex_r	pro_sup_r	wrist_flex_r	wrist_dev_r	arm_flex_l	arm_add_l	arm_rot_l	elbow_flex_l	pro_sup_l	wrist_flex_l	wrist_dev_l
      4.64912281	      2.57938733	     -7.38179855	     94.33521225	      0.15834763	      0.67241484	      0.84667449	     -6.91682214	      3.19434021	      4.47614814	      7.85872953	      0.13716071	     29.92043037	    -16.49304075	      0.00000000	     -9.11783722	     -3.13794485	     14.30906682	      1.66997812	      0.02914662	     33.56092800	     -5.93813891	      0.00000000	     -0.37665747	      0.59835595	     -0.52971595	     -0.69949058	      0.79581341	     -0.56282320	     -0.61881055	      1.45484266	     -0.56282320	     -0.43048182	      1.45484266	     -0.46350146	     -0.34976412	      1.22016745	     -0.43039421	     -0.21522208	      0.92685337	     -0.39728696	     -2.69042662	      6.76872217	     -2.94612121	      0.00000000	      0.00000000	     17.60331540	      4.57261716	      3.35666445	     -5.51328944	    -24.15860943	     54.49857400	     20.30207149	     44.69902497	     -8.26849819	     -6.11303374	      4.87022078	     -7.93003179	    129.50830953	      6.03466280	      5.05063335	    -15.05864764	     -3.39307558
      4.66666667	      2.98860820	     -7.32682979	     94.32378295	      0.15724227	      0.67262461	      0.84709964	     -6.96546446	      3.55852235	      4.71339150	      7.61482294	      0.13290373	     29.88577782	    -16.30623972	      0.00000000	     -9.13266367	     -3.46940277	     14.28179957	      1.77604830	      0.03099789	     33.73254346	     -6.15230115	      0.00000000	     -0.38292753	      0.67557794	     -0.56327851	     -0.71113472	      0.89851866	     -0.59848341	     -0.62911165	      1.64260021	     -0.59848341	     -0.43764788	      1.64260021	     -0.49286869	     -0.35558651	      1.37763854	     -0.45766379	     -0.21880479	      1.04647023	     -0.42245888	     -2.73521309	      7.64227279	     -3.13278607	      0.00000000	      0.00000000	     17.52728348	      4.15736032	      3.56296743	     -5.70910592	    -24.82656879	     53.17479180	     20.47479325	     42.87763096	     -8.26676222	     -5.82022456	      4.81398386	     -7.76032129	    127.63031105	      5.80747103	      4.40944782	    -14.08846347	     -3.04078273
      4.68421053	      3.33391745	     -7.28377007	     94.40615650	      0.15626317	      0.67272607	      0.84757589	     -6.92977757	      3.87401332	      4.66827326	      7.53064629	      0.13143457	     29.95731656	    -15.97393824	      0.00000000	     -9.14721938	     -3.77705927	     14.08219150	      1.83891353	      0.03209510	     33.71734640	     -6.15482649	      0.00000000	     -0.38557207	      0.73771748	     -0.63083459	     -0.71604590	      0.98116425	     -0.67026175	     -0.63345636	      1.79368629	     -0.67026175	     -0.44067032	      1.79368629	     -0.55198026	     -0.35804223	      1.50435349	     -0.51255310	     -0.22031588	      1.14272438	     -0.47312594	     -2.75410277	      8.34520771	     -3.50851272	      0.00000000	      0.00000000	     17.45657802	      3.67254944	      3.52190451	     -5.77418895	    -25.55211182	     52.71964719	     20.76573344	     40.30306802	     -8.15049810	     -5.54334166	      4.67591222	     -7.82088660	    123.20470313	      5.94274328	      6.07613598	    -13.50197782	     -2.91083607
      4.70175439	      3.62031029	     -7.15696162	     94.58263442	      0.15513711	      0.67294504	      0.84803485	     -6.91315142	      4.04955903	      3.05539241	      7.61001308	      0.13281978	     30.65408679	    -13.44132259	      0.00000000	     -9.26960024	     -4.07013038	     12.85176409	      1.80376862	      0.03148170	     33.69744145	     -4.69959908	      0.00000000	     -0.40306638	      0.79169699	     -0.71427128	     -0.74853457	      1.05295699	     -0.75891323	     -0.66219775	      1.92493205	     -0.75891323	     -0.46066456	      1.92493205	     -0.62498737	     -0.37428744	      1.61442850	     -0.58034541	     -0.23031213	      1.22633863	     -0.53570346	     -2.87906282	      8.95583465	     -3.97256255	      0.00000000	      0.00000000	     17.35835302	      3.19389083	      3.61688355	     -5.79800946	    -26.34965633	     52.14954927	     20.96777651	     39.99413239	     -7.77154377	     -5.37798405	      4.56558914	     -7.71940857	    120.93010484	      5.79822402	      7.13826710	    -13.48263284	     -2.10339386
      4.71929825	      4.03326496	     -7.21698186	     94.71781846	      0.15459832	      0.67300196	      0.84851645	     -6.71886259	      4.50669801	      3.76955393	      7.57415070	      0.13219387	     30.27777559	    -14.37711299	      0.00000000	     -9.11887981	     -4.48085736	     12.38585007	      1.89075351	      0.03299987	     33.57448458	     -4.34717038	      0.00000000	     -0.39484628	      0.85388546	     -0.81174493	     -0.73326902	      1.13566766	     -0.86247899	     -0.64869295	      2.07613711	     -0.86247899	     -0.45126981	      2.07613711	     -0.71027682	     -0.36665425	      1.74124323	     -0.65954276	     -0.22561516	      1.32266858	     -0.60880870	     -2.82034748	      9.65932310	     -4.51468180	      0.00000000	      0.00000000	     17.29699533	      2.85654483	      4.21563370	     -5.50699001	    -27.16047187	     52.25842250	     20.92114061	     40.08724149	     -6.78058830	     -4.50173368	      4.41670616	     -7.66306161	    120.02926224	      5.57938336	      6.19564461	    -12.36030822	     -1.45811705
      4.73684211	      4.31866879	     -7.21069775	     94.63510133	      0.15428188	      0.67315669	      0.84875878	     -6.58094609	      4.74570187	      3.70590893	      7.62260391	      0.13303954	     30.33332866	    -13.98509567	      0.00000000	     -9.15251336	     -4.74515841	     11.71922614	      1.80019707	      0.03141937	     33.36743612	     -3.81118721	      0.00000000	     -0.39676128	      0.89860599	     -0.83694306	     -0.73682537	      1.19514597	     -0.88925200	     -0.65183910	      2.18487060	     -0.88925200	     -0.45345846	      2.18487060	     -0.73232518	     -0.36843252	      1.83243733	     -0.68001624	     -0.22670939	      1.39194068	     -0.62770730	     -2.83402613	     10.16521068	     -4.65482622	      0.00000000	      0.00000000	     17.17832088	      2.82038064	      4.83689303	     -5.06355136	    -27.95240651	     53.46842407	     20.53718320	     41.65381303	     -5.81406853	     -4.30113658	      4.33394221	     -7.56354811	    119.76179568	      5.37195253	      6.05023183	    -12.02049608	     -0.79143757
      4.75438596	      4.35004408	     -7.18435816	     94.69828773	      0.15378604	      0.67328259	      0.84873851	     -6.54532844	      4.75121406	      3.62357599	      7.61326023	      0.13287646	     30.38872819	    -14.00354181	      0.00000000	     -9.17302860	     -4.75845964	     11.68036482	      1.79585327	      0.03134355	     33.11769915	     -3.73339088	      0.00000000	     -0.39646228	      0.90901949	     -0.81263194	     -0.73627011	      1.20899592	     -0.86342143	     -0.65134789	      2.21018999	     -0.86342143	     -0.45311674	      2.21018999	     -0.71105295	     -0.36815488	      1.85367254	     -0.66026345	     -0.22653855	      1.40807119	     -0.60947395	     -2.83189045	     10.28301028	     -4.51961505	      0.00000000	      0.00000000	     17.14234456	      2.86564907	      4.88954007	     -5.08128885	    -28.46253401	     53.64357556	     20.35217652	     41.87540683	     -5.74578303	     -4.26544090	      4.36047532	     -7.61269716	    119.77481282	      5.36325987	      6.05993353	    -11.97770567	     -0.72386547
      4.77192982	      4.65403464	     -7.22521668	     94.19253360	      0.15454492	      0.67340785	      0.84865205	     -6.33762901	      4.95239109	      3.34828550	      7.82095506	      0.13650142	     30.58826685	    -12.97313979	      0.00000000	     -9.31661010	     -5.00027910	     10.77427426	      1.53093854	      0.02671992	     33.13892803	     -3.23790786	      0.00000000	     -0.39343919	      0.94019390	     -0.75236668	     -0.73065593	      1.25045788	     -0.79938960	     -0.64638125	      2.28598744	     -0.79938960	     -0.44966166	      2.28598744	     -0.65832085	     -0.36534764	      1.91724340	     -0.61129793	     -0.22481116	      1.45636035	     -0.56427501	     -2.81029682	     10.63566140	     -4.18443778	      0.00000000	      0.00000000	     16.94280196	      3.38582560	      5.88885482	     -3.86115379	    -29.15903139	     57.69885496	     19.06676728	     46.88316623	     -4.49896053	     -5.05200754	      4.18754290	     -7.54329788	    120.52062070	      4.85904390	      6.21595132	    -11.03285042	      0.16696689
      4.78947368	      4.70842630	     -7.22014445	     93.96388928	      0.15494981	      0.67351509	      0.84841309	     -6.25156721	      4.95126373	      3.12522230	      7.98298607	      0.13932939	     30.84518380	    -12.50119854	      0.00000000	     -9.42463279	     -5.01972116	     10.38678184	      1.41186490	      0.02464169	     33.24481527	     -2.85201290	      0.00000000	     -0.39069725	      0.93590541	     -0.68288692	     -0.72556386	      1.24475420	     -0.72556735	     -0.64187651	      2.27556041	     -0.72556735	     -0.44652788	      2.27556041	     -0.59752605	     -0.36280146	      1.90849831	     -0.55484562	     -0.22324441	      1.44971748	     -0.51216519	     -2.79071136	     10.58714918	     -3.79801216	      0.00000000	      0.00000000	     16.83558415	      3.71032714	      6.02234698	     -3.16356693	    -29.51095914	     60.46036378	     18.10236429	     50.14087522	     -4.70607819	     -5.70480013	      4.10480245	     -7.68658264	    121.14434024	      4.62456551	      5.90415548	    -10.28017420	      0.58832203
